<svg width="32" height="32" viewBox="0 0 32 32" fill="none" xmlns="http://www.w3.org/2000/svg">
  <defs>
    <linearGradient id="bg" x1="0%" y1="0%" x2="100%" y2="100%">
      <stop offset="0%" style="stop-color:#D2691E;stop-opacity:1" />
      <stop offset="100%" style="stop-color:#8B4513;stop-opacity:1" />
    </linearGradient>
  </defs>
  <!-- Orange gradient background -->
  <rect width="32" height="32" rx="6" fill="url(#bg)"/>
  <!-- Parrot logo from Logos Parrot-09.svg, scaled smaller and centered -->
  <!-- Original viewBox: 0 0 441.05 611.24 -->
  <!-- Scale: 0.04 makes logo ~17.6x24.4, centered in 32x32 = translate(7.2, 3.8) -->
  <g transform="translate(7.2, 3.8) scale(0.04)">
    <path d="M381,324.26c0-8.91-.08-15.93.01-22.95.78-57.55-39.53-85.47-82.52-90.88-13.96-1.76-28.27-.83-42.42-1.11-2.53-.05-5.07,0-8.32,0v-47.71C164.63,232.15,82.99,301.44.02,371.85c0-3.65,0-5.64,0-7.63,0-43.9-.04-87.79.01-131.69C.18,113.75,83.55,16.35,201.46,1.79c106.59-13.16,193.73,48.06,225.22,127.83,24.61,62.33,18.39,121.63-24.94,174.91-3.7,4.55-8.14,8.53-12.36,12.64-2.17,2.11-4.62,3.93-8.39,7.09ZM279.25,92.69c-.1-12.33-10.3-22.53-22.46-22.43-11.48.09-21.5,10.72-21.44,22.76.06,12.7,9.89,22.76,22.15,22.67,12.04-.08,21.85-10.46,21.75-23ZM110.38,535.23c40.83,33.81,86.74,58.45,136.86,76.01V215.35c-78.14,65.7-155.54,130.76-233.03,195.91,23.89,48.52,55.19,90.04,96.17,123.97Z" fill="#f2f2f2"/>
  </g>
</svg>
