<svg width="32" height="32" viewBox="0 0 32 32" fill="none" xmlns="http://www.w3.org/2000/svg">
  <defs>
    <linearGradient id="bg" x1="0%" y1="0%" x2="100%" y2="100%">
      <stop offset="0%" style="stop-color:#D2691E;stop-opacity:1" />
      <stop offset="100%" style="stop-color:#8B4513;stop-opacity:1" />
    </linearGradient>
  </defs>
  <rect width="32" height="32" rx="6" fill="url(#bg)"/>
  <!-- Bird head silhouette -->
  <path d="M16 8c-3 0-5 2-5 5 0 2 1 3 2 4l-1 6h8l-1-6c1-1 2-2 2-4 0-3-2-5-5-5z" fill="white"/>
  <!-- Bird beak -->
  <path d="M16 13c-1 0-2 1-2 2s1 2 2 2 2-1 2-2-1-2-2-2z" fill="white"/>
  <!-- Bird eye -->
  <circle cx="15" cy="10" r="1.5" fill="#8B4513"/>
</svg>